# xmcd
#
# Track frame offsets: 
#        150
#        16536
#        35103
#        56689
#        74835
#        104506
#        126241
#        142608
#        164520
#        179749
#
# Disc length: 2767 seconds
#
# Revision: 3
# Processed by: cddbd v1.5.2PL0 Copyright (c) Steve Scherf et al.
# Submitted via: ExactAudioCopy v1.1
#
DISCID=920acd0a
DTITLE=Welch, Gillian - The Harrow and The Harvest
DYEAR=2011
DGENRE=Country
TTITLE0=Scarlet Town
TTITLE1=Dark Turn Of Mind
TTITLE2=The Way It Will Be
TTITLE3=The Way It Goes
TTITLE4=Tennessee
TTITLE5=Down Along The Dixie Line
TTITLE6=Six White Horses
TTITLE7=Hard Times
TTITLE8=Silver Dagger
TTITLE9=The Way The Whole Thing Ends
EXTD=YEAR: 2011
EXTT0=
EXTT1=
EXTT2=
EXTT3=
EXTT4=
EXTT5=
EXTT6=
EXTT7=
EXTT8=
EXTT9=
PLAYORDER=
